<?xml version="1.0" standalone="no"?>
<!DOCTYPE svg PUBLIC "-//W3C//DTD SVG 20010904//EN"
 "http://www.w3.org/TR/2001/REC-SVG-20010904/DTD/svg10.dtd">
<svg version="1.0" xmlns="http://www.w3.org/2000/svg"
 width="1136.000000pt" height="1136.000000pt" viewBox="0 0 1136.000000 1136.000000"
 preserveAspectRatio="xMidYMid meet">
<metadata>
Created by potrace 1.14, written by Peter Selinger 2001-2017
</metadata>
<g transform="translate(0.000000,1136.000000) scale(0.100000,-0.100000)"
fill="#000000" stroke="none">
<path d="M6083 11349 c-18 -5 -33 -14 -33 -19 0 -6 -8 -10 -19 -10 -10 0 -24
-7 -31 -15 -7 -8 -16 -15 -20 -15 -4 0 -65 -34 -135 -75 -69 -41 -131 -75
-136 -75 -5 0 -9 -4 -9 -9 0 -5 -11 -12 -25 -15 -14 -4 -25 -11 -25 -16 0 -6
-4 -10 -9 -10 -5 0 -38 -16 -73 -36 -34 -20 -99 -57 -143 -82 -44 -25 -82 -48
-85 -51 -3 -4 -23 -15 -45 -26 -22 -11 -42 -23 -45 -26 -3 -4 -25 -17 -50 -29
-25 -12 -47 -26 -50 -30 -3 -3 -20 -13 -37 -21 -18 -8 -33 -17 -33 -21 0 -5
-4 -8 -10 -8 -5 0 -55 -27 -110 -59 -55 -33 -100 -57 -100 -53 0 4 -4 2 -8 -4
-4 -6 -99 -64 -212 -129 -276 -159 -291 -169 -320 -211 l-25 -38 -3 -420 c-1
-232 -4 -427 -7 -433 -3 -8 -29 2 -80 32 -42 25 -80 45 -85 45 -6 0 -10 3 -10
8 0 4 -31 23 -68 42 -37 19 -69 38 -72 41 -3 3 -36 23 -75 44 -38 21 -93 53
-122 71 -28 18 -54 30 -57 27 -3 -4 -6 -1 -6 5 0 7 -4 12 -10 12 -5 0 -39 18
-75 40 -156 96 -183 96 -357 -2 -71 -40 -142 -79 -156 -87 -15 -8 -28 -18 -30
-23 -2 -4 -9 -8 -16 -8 -6 0 -27 -11 -46 -23 -19 -13 -57 -36 -85 -52 -133
-74 -280 -161 -283 -167 -2 -5 -8 -8 -13 -8 -5 0 -39 -18 -75 -40 -36 -22 -67
-40 -69 -40 -2 0 -53 -29 -114 -65 -60 -36 -114 -65 -120 -65 -5 0 -11 -4 -13
-8 -1 -4 -34 -26 -73 -47 -38 -22 -77 -44 -86 -50 -9 -5 -34 -20 -55 -32 -22
-11 -112 -64 -202 -116 -89 -53 -162 -93 -162 -89 0 3 -12 -10 -26 -29 -60
-78 -56 12 -59 -1395 -2 -711 -6 -1297 -9 -1303 -4 -6 -4 -11 1 -11 7 0 9 -76
3 -105 -1 -5 -2 -14 -1 -20 1 -5 1 -109 1 -230 -1 -121 -3 -985 -6 -1920 l-4
-1700 21 -43 c22 -44 54 -73 122 -111 20 -12 52 -30 71 -40 18 -11 44 -25 57
-33 13 -7 26 -16 29 -19 3 -3 20 -11 38 -18 17 -8 32 -17 32 -22 0 -5 6 -9 13
-9 6 0 39 -16 72 -36 33 -20 80 -47 105 -61 25 -13 68 -38 95 -54 28 -16 61
-35 75 -42 14 -6 27 -14 30 -17 5 -6 51 -32 175 -99 28 -15 69 -40 93 -55 24
-15 53 -31 65 -36 12 -6 31 -16 42 -22 63 -41 126 -78 130 -78 3 0 23 -11 45
-25 22 -14 46 -25 55 -25 8 0 15 -4 15 -9 0 -5 19 -19 43 -31 23 -11 49 -25
57 -30 8 -6 71 -42 140 -81 69 -39 143 -81 165 -94 22 -12 83 -47 135 -77 52
-30 111 -63 130 -74 19 -10 37 -21 40 -24 3 -3 16 -11 30 -18 14 -7 34 -18 45
-25 28 -17 172 -100 218 -126 66 -38 101 -58 155 -90 29 -17 57 -31 62 -31 6
0 10 -4 10 -10 0 -5 4 -10 9 -10 7 0 125 -66 274 -154 31 -18 88 -50 157 -89
19 -10 40 -23 45 -27 6 -4 30 -19 55 -32 25 -14 72 -41 105 -60 33 -19 71 -41
85 -49 14 -8 27 -16 30 -19 3 -3 19 -12 35 -20 17 -8 66 -36 110 -62 131 -77
179 -74 333 21 46 28 86 51 88 51 3 0 30 16 60 35 30 19 61 35 68 35 8 0 16 4
18 8 2 5 41 31 88 58 47 27 94 54 105 61 11 7 27 16 35 20 18 9 260 150 280
163 8 6 22 13 30 17 8 4 33 18 55 32 22 14 54 32 70 41 55 30 129 73 202 117
39 23 76 43 82 43 6 0 11 4 11 9 0 5 8 11 18 14 9 4 35 17 57 31 22 14 51 31
65 39 199 108 310 183 314 211 1 6 6 18 11 26 15 24 15 27 17 458 1 226 4 412
7 412 3 0 22 -10 41 -22 19 -11 60 -35 90 -51 30 -16 62 -36 71 -43 8 -8 18
-14 22 -14 6 0 88 -47 277 -159 52 -30 98 -56 102 -56 4 0 13 -6 19 -12 7 -7
19 -13 26 -13 7 0 13 -4 13 -8 0 -4 12 -13 28 -19 15 -7 34 -16 42 -21 45 -28
72 -35 123 -29 49 5 93 21 107 38 3 4 23 16 45 28 22 11 63 34 90 51 28 17 61
36 75 43 14 6 27 14 30 17 6 6 45 29 82 47 15 8 30 19 33 24 4 5 11 7 16 4 5
-4 9 -2 9 2 0 5 24 21 53 37 28 15 73 40 99 56 25 15 66 39 90 53 23 13 82 47
130 76 48 28 91 51 97 51 6 0 11 5 11 10 0 6 4 10 10 10 9 0 69 34 140 79 14
8 28 16 32 16 4 0 13 6 19 13 7 6 19 12 26 12 7 0 13 5 13 10 0 6 6 10 13 10
7 0 19 6 26 13 6 6 15 12 19 12 4 0 52 27 107 59 55 33 134 79 175 103 41 24
82 48 90 53 8 6 24 14 36 19 73 32 150 109 162 161 2 8 5 485 8 1059 4 1005 3
1045 -15 1086 -22 50 -49 71 -206 161 -66 38 -128 74 -137 79 -9 6 -41 23 -70
39 -29 16 -55 31 -58 35 -3 4 -16 12 -30 19 -43 21 -135 74 -140 81 -3 3 -12
7 -20 9 -8 2 -16 8 -18 13 -2 5 -8 9 -14 9 -5 0 -43 20 -84 45 -40 25 -77 45
-81 45 -3 0 -14 6 -22 14 -9 7 -41 27 -71 43 -58 32 -73 40 -213 122 -49 28
-92 51 -97 51 -5 0 -10 4 -12 8 -1 5 -28 22 -58 38 -62 34 -121 68 -165 95
-16 10 -39 23 -50 28 -11 6 -49 27 -85 49 l-65 38 3 1230 c2 676 5 1666 6
2199 3 1071 6 1019 -60 1080 -17 17 -54 41 -80 55 -27 13 -51 27 -54 30 -9 9
-84 51 -112 63 -16 6 -28 15 -28 19 0 4 -6 8 -14 8 -8 0 -16 5 -18 11 -2 5
-11 11 -21 13 -10 1 -26 9 -36 17 -10 8 -33 22 -52 33 -109 59 -146 80 -160
92 -8 8 -18 14 -22 14 -4 0 -44 22 -89 49 -46 27 -100 58 -120 70 -21 11 -53
29 -70 40 -18 10 -67 38 -108 61 -41 23 -83 50 -94 59 -10 9 -21 15 -25 14 -3
0 -49 24 -101 54 -52 31 -108 63 -125 72 -16 9 -32 18 -35 21 -3 3 -14 10 -25
16 -25 14 -104 57 -136 75 -13 8 -26 16 -29 19 -6 6 -54 33 -100 56 -19 10
-37 20 -40 23 -7 8 -47 31 -95 54 -47 24 -117 30 -162 16z"/>
</g>
</svg>
